<svg width="143" height="146" viewBox="0 0 143 146" fill="none" xmlns="http://www.w3.org/2000/svg">
<rect width="143" height="146" fill="white"/>
<path d="M113 114.82V62.6457M113 114.82H30M113 114.82L93.0382 82.4718M113 62.6457L103.019 72.5588M113 62.6457H103.019M30 114.82L49.962 82.4718M30 114.82L30 62.6457M93.0382 82.4718H49.962M93.0382 82.4718L103.019 72.5588M103.019 72.5588V62.6457M103.019 62.6457V30.8196L39.981 30.8196V62.6457M49.962 82.4718L39.981 72.5588M39.981 72.5588L30 62.6457M39.981 72.5588V62.6457M30 62.6457H39.981" stroke="black" stroke-width="4" stroke-linejoin="round"/>
<path d="M84.6096 48.1182C83.8521 47.3895 82.9528 46.8114 81.9629 46.417C80.9731 46.0226 79.9121 45.8196 78.8407 45.8196C77.7691 45.8196 76.7082 46.0226 75.7183 46.417C74.7284 46.8114 73.8291 47.3895 73.0716 48.1182L71.4996 49.6298L69.9276 48.1182C68.3976 46.6469 66.3224 45.8203 64.1586 45.8203C61.9948 45.8203 59.9196 46.6469 58.3896 48.1182C56.8596 49.5895 56 51.585 56 53.6656C56 55.7463 56.8596 57.7418 58.3896 59.2131L59.9616 60.7247L71.4996 71.8196L83.0376 60.7247L84.6096 59.2131C85.3675 58.4847 85.9686 57.6199 86.3787 56.668C86.7889 55.7162 87 54.6959 87 53.6656C87 52.6353 86.7889 51.615 86.3787 50.6632C85.9686 49.7114 85.3675 48.8466 84.6096 48.1182Z" fill="#FF0000" stroke="#FF0000" stroke-width="4" stroke-linecap="round" stroke-linejoin="round"/>
</svg>
