<svg width="143" height="146" viewBox="0 0 143 146" fill="none" xmlns="http://www.w3.org/2000/svg">
<g clip-path="url(#clip0_4493_71)">
<path d="M141 143.639V55.6646M141 143.639H2M141 143.639L107.57 89.0949M141 55.6646L124.285 72.3797M141 55.6646H124.285M2 143.639L35.4304 89.0949M2 143.639V55.6646M107.57 89.0949H35.4304M107.57 89.0949L124.285 72.3797M124.285 72.3797V55.6646M124.285 55.6646V2H18.7152V55.6646M35.4304 89.0949L18.7152 72.3797M18.7152 72.3797L2 55.6646M18.7152 72.3797V55.6646M2 55.6646H18.7152" stroke="black" stroke-width="4" stroke-linejoin="round"/>
<path d="M93.0771 30.5216C91.8303 29.2888 90.35 28.3108 88.7207 27.6435C87.0914 26.9763 85.3451 26.6328 83.5815 26.6328C81.8178 26.6328 80.0715 26.9763 78.4422 27.6435C76.8129 28.3108 75.3326 29.2888 74.0858 30.5216L71.4983 33.0791L68.9108 30.5216C66.3924 28.0325 62.9767 26.6341 59.4152 26.6341C55.8536 26.6341 52.4379 28.0325 49.9195 30.5216C47.4011 33.0108 45.9863 36.3868 45.9863 39.9069C45.9863 43.4271 47.4011 46.8031 49.9195 49.2922L52.507 51.8496L71.4983 70.6202L90.4896 51.8496L93.0771 49.2922C94.3245 48.0599 95.3139 46.5968 95.989 44.9864C96.6641 43.3761 97.0116 41.65 97.0116 39.9069C97.0116 38.1638 96.6641 36.4377 95.989 34.8274C95.3139 33.217 94.3245 31.7539 93.0771 30.5216Z" fill="#FF0000" stroke="#FF0000" stroke-width="4" stroke-linecap="round" stroke-linejoin="round"/>
</g>
<defs>
<clipPath id="clip0_4493_71">
<rect width="143" height="146" fill="white"/>
</clipPath>
</defs>
</svg>
